<svg class="svg-icon" style="width: 1em;height: 1em;vertical-align: middle;fill: currentColor;overflow: hidden;" viewBox="0 0 1024 1024" version="1.1" xmlns="http://www.w3.org/2000/svg"><path d="M512.045056 57.344c33.917952 0 67.88096 8.502272 98.57024 25.41568l250.288128 138.033152C926.101504 256.801792 966.656 325.408768 966.656 399.927296V762.0608C966.656 875.042816 875.042816 966.656 762.0608 966.656H261.9392C148.957184 966.656 57.344 875.042816 57.344 762.0608V399.927296c0-74.518528 40.55552-143.171584 105.798656-179.134464L413.42976 82.75968C444.11904 65.846272 478.083072 57.344 512.045056 57.344zM739.328 557.4656c-25.142272 0-45.4656 20.323328-45.4656 45.4656v90.9312c0 25.142272 20.323328 45.4656 45.4656 45.4656 25.142272 0 45.4656-20.323328 45.4656-45.4656v-90.9312c0-25.142272-20.323328-45.4656-45.4656-45.4656z" fill="#323233" /></svg>